<?xml version="1.0" encoding="UTF-8"?>
<svg id="Layer_1" xmlns="http://www.w3.org/2000/svg" version="1.1" viewBox="0 0 281.7 75.1">
  <!-- Generator: Adobe Illustrator 30.6.0, SVG Export Plug-In . SVG Version: 2.1.4 Build 109)  -->
  <defs>
    <style>
      .st0 {
        fill: #fe7029;
      }
    </style>
  </defs>
  <path class="st0" d="M23.2,41.9c-.8-.5-1.6-.2-2.4-.4-.5-.2-.2-.7-.3-1,0-.1-.2-.3-.4-.3-.5,0-1-.2-1.5-.1-1,.2-2,0-3,0-1,0-1.2-.8-1.3-1h0c1.3,0,2.7-.3,4,0,.8.1,1.6-.6,1.4-.7-.4-.3-8.3-.3-9.6-.1-.6-.4-1.1-.8-1.7-1.3-1.2,0-2.4,0-3.7-.2,2.7-.9,3.5.3,4.4-1.2-.6-.5-1.4-.7-2.1-.6-1.3.3-2.5,0-3.7,0,4.9-1.3,6.4-.5,8.8-2.7,0-1.6,0-.5.7-1.3.6-.6.1-.9,1.6-1,2.7-.2,2.2-.2,2.6-.9-.9-.7-1.9,0-2.7-.5.1-.7.8-.6,1.1-1.1-.3-.8-1.3-.8-1.5-1.8.2-1.2,1.3-.6,1.9-1.1-.7-.7-3.3.3-3-1.3,2.3-.6,4.3,0,6.7-.5-2.1-.4-3.9.1-5.8-.5.9-.6,1.8-.2,2.6-.5,0-.3-.3-.2-.5-.3-2.7-.2-1.8,0-2.8-.6-.1-1-.5-2.4.5-2.5,3.8-.2,38.1.5,43.9.2,1.4,0,2.2.3,2.5-.7-.5-.5-1-1-1.5-1.5-8-1.1-43.8,0-46.4-.7,0-1.5.2-1.6-1.2-1.6-9.1-.3-6.5.2-9.4-.2-.8-.7.3-.4,8.8-.6.2,0,.4-.1.7-.2-.1-.5-.5-.7-.8-.7-1-.2-5.9,0-6.5,0-.7,0-1.3-.1-2-.2-.2,0-.3-.4-.1-.7,1.4-2.7-5.5-2.2,22.1-2.3,2.4,0,3.1,0,3.4-.9-.9-1.2-2-.4-3-.5-.2-.4,0-.6.3-.6,1.1-.1,3.9-.5,6.3.2,2.9.8,3.6,0,4.5.2,1.9.5,4.3-.2,5.8,0,3.5.6,9.3.2,12.3.5,4.4.4,5.3-.2,7.2-1.1,3.2.1,3,.3,2.7-.5-2.4-.4-2.3-.5-3-.3-1.1.3-.1-.3-4-.4-4.1,0-10-.2-12.6-.2-3.1,0-3.2.6-5.8.1-3.1-.5-30.6.5-33.1-1.4.8-.3,1.6-.1,2.3-.2,3.5-.4,2.8-.7,5-.7,44.9.3,47,1.3,56.5.2-3.9-.3-4.9-.2-6.4-.8-1.3-.5-7.6-.3,6.3-.8.3,0,.5,0,.7,0,1.1-.6,2.1-.3,3.2-.3.9,0,2.8,0,3.5,0,5.7.6,8.3.5,29.5.5,49.6,0,50.1,1.4,54.5.9,1.4-.2-.1-.3,2.9-.3,1.8.7,2,.9,3.5.9,6.1,0,3.4.4,5.8.2,2.4-.2,2.7.4,3.8.2.9-.1,1.7-.2,2.5,0,.7.1,1.5-.4,2.2,0,1.1.5,2.9-.7,7-.3,2.4.3,2.4.7,4.5.6,9.1-.3,38.6-4.2,36.9-1.5-.5.9-1.8,0-4,.6.2.3.4.6.5.6,1.2.3,3.2,0,5.1.3,0,.1-.1.3-.2.3-1.3.2-2.5.6-3.5,1.4-2.4-.3-2.4-.5-2.2.3,37.1.4,37.4-.8,38.6,1.1-.9.6-4.4.2-6.7.6-.8.2-3.9-.5-6.5.2-.3,0-.7,0-1,0-1.2-.4-9.4-.2-10.1,0-2,.6-2.8-.7-5.2.2-2.4.9-3.3.4-4.3,1.3,0,1.5,7,.2,9.7.8.5,0,1,0,1.5,0,1.8-.3,2.4.7,3.4,1.1,1.5,0,3,.4,4.6.2.1-.3.2-.5.2-.7,0-1,.3-1.5.9-1.7.8-.2,1.5-.3,2.2.4.3.6.2,1.4.9,2,1,.2,2.2.2,3.4-.3,2,.9,2.9.2,7.9.9,1,.1,1.5,1,1.3,1-3,.5-2.1.2-2.8.8-.3,0-.2,0-.3.2,0,0,.1-.2.2-.3.4.1.8.1,1.1.5,0,.3,0,.6-.3.6-1,0-2,.2-3,.1-1.8-.2-3.5.1-5.2,0-.2.5-.4.9-.6,1.4,2.2,1.5,9.1-.2,10.6,1,0,0-.2.3-.3.3-3.6.2.8.2-32.7.2-2,.8-1.8,1-4.4,1.1-1.9,0-3.7.4-5.4,1.1-.2-.1-.4-.3-.7-.3-4.1-.1-4.2,0-5.3.3-.1,0-.2.3-.3.4.8.1,1.6.3,2.5.3,1.6.1,1.2-.6,2.9-.3.3,0,.6-.3.9-.4,1.4,1.3-1.6.6,37.3.8.6,0,1.2,0,1.6.6-.6,0-.4,0-.7.2.3.3.3.1.7-.3,1.5-.5,0-.5,4.2-.5.1.7-.6.4-.7.9.5.2.9.5,1.4.7.2.1.2.8-.2.9-1.4.4-22.6-.2-20.8.6.8.4,1.9.6,2.7.6,8.7-.4-4.9.5,16.6.5,6.7,0,4.4-.2,6.3,0-1.7.6-17.2,0-18.4.7-.3.2-.5.5-.2,1,1.1.2-1.8.2,20.3.3,3.6,0,3.9-.3,6.2.9.2.1,0,.6-.2.6-1.2.7-3.7-.7-7.5.3-.8.2-.7-.5-3.3.5-3-.8,1.1-.2-11.6-.6-.5.3-.8.5-1.2.7-1.1,0-2.3-.2-3.5,0,.5.6,1.2.2,1.7.3,2.4.5,1.7-.4,2.5.9-.6.2-1.1.4-1.7.7-.3.1,0,.6.1.6,1.9.7,3.9.3,4.2.3,2.3.5,4.7,0,7,.2,1.5.1,3,0,4.6-.1.2-.3.3-.7.5-1-.7-.4-1.3,0-2-.4-.6-.2-1.3-.1-2-.3-.6-.1-1.2.2-1.7.2-.9,0-1.1-.9-.7-.9,7.9-.3,7.8-.5,7.3,1.7,2.7,2,3.3-.7,9.5,1.7-.4.7.3.2-2.2.9,0,0-.2.3-.2.4,0,0,0-.1.5.6-.4.6-1,.6-1.6.5-2.1-.6-3.9.8-6,0-2.4.4-2.4.3-2.7.6-.4.5-.1.9,0,.9.5.2,1,.4,1.4.4,11.2.3,8.7-.3,10.3.3-.4.6,0,.8-2.3.8-16.7,0-11-.2-12.1,0-7.2,1-8.2-.7-8.8,1.5.2.2-.5.2,4.9.4,3.4.1,1.5-.3,3.7.6,1.4.6.2.4,14.1.4.7,0,1.1.2,1.1,1.1,0,.2.3.4.4.6-.2.4-.5.7-.8.7-3,.5-16.4-.3-17.1.6-.5.7-2.3,1.1-3,.5-.7-.7-1.6-.5-2.4-.5.1.2.1.5.2.5,1.6,1.3,2.5.2,5.7,1,.2,0,.4.3.6.5-.6.9-3.4,0-4.4.9,4.4.8,17.6.8,7.4,1.4-.3,0-.6.3-.5.5.1.2.5.5,1,.8-1.8,1-4.8,1.4-5.2,1.6-1.5.9-3.2.5-7.3.1-.8.4-2.2.2-3.3,1-1.2.2-2.3.5-3.5.5-1.9,0-3.9.2-5.8-.1-.6-.1-2.1,0-1.9.7.1.3,1,.3,1.2.3.5,0,8.2.6,9.8-1,.9,0,1.5.5,2,.9,1.2.9,1.7.6,7.9.9.3,0,.6.3.8.6.2-.3-10.6.2-15.3-.1-.5,0-2.3-.1-2.4.4,0,.3.3.6.4.6,1.9.7,1.7.5,2.3-.2,2.9-.7,4.5,0,7.5,1.1.8.3.2,1,.2,1.1,0,0,0,.2.1.4,1.1-.1,2.3,0,3.5.3-.6.6-10.2.2-12.9.5-.2.5.6.8,1.1.8.2,0,.5,0,.6.3,0,.2-.2.4-.8.5-6.5,1.4,1-.1-9,.8-1.1,0-1.4,1.4-2.8.8-.8-.3-1.6-.4-2.5-.3-.4,0-.8-.2-1.2-.2-5.8,0-3.3.6-7.5.6,0,0-16.6,0-16.6,0-2.2.3-.5.2-.6,1.6-1.9,1.2-2.7,0-6.9.2-1.6,0-3.4-.4-6.3.3-1.3.3-6.7.2-10.8.4-5.3.3,1.2.3-12.9.5-1.4,0-9.7,1.3-11,.7-.3-.1-.3,0-4.2.3-.3.6.3.6.3,1-.3,0-.7.2-.9,0-2.2-.7-14.4-.5-15.1-.4-4.1.6-8.2.6-18.9.4-.8,0-1.5,0-2.1-.6-.1-.1-.4-.2-.5-.1-.8.5-1.5,0-2.2,0-.7,0-1.3,0-2.1.1-.3-.3-.9-.9-1.5-.9-1.8,0-2.2.6-3.5.3-.7-.1-1.5.2-2.2,0-.9-.2-3.7.3-5.5-.3-.9-.3-1.8-.3-2.7,0-1.9.6-3-.6-8.5-.3,0,0-53.4.8-54.5.5.3-.4-.2-.2,2-.3,3-.1.2-.4,6-.6,4.6-.1,55.3,0,55.5,0,.6,0,7.9-1.9-24.6-1-8.8.2-9.9-.3-12.1.3-.3,0,.9,0-13.4.2-1.9,0-1.8-.4-1.7-1.8,1.6-.9,1,1.6,4.3.9,1.2-.3,7.5-.3,12.8-.5,1.3,0,2.7-.3,4-.3,13-.5,11.9.3,11.9-1-4.5-.7-6.4.2-6.5.2-1.3-.6-4.1,0-4.5-.1-2.3-1.3-14.1-.7-16.8-1.1-2-.3-4.2.8-6.2-.1-.8-.4-1.7.3-2.5.1-1.7-.3-.3,0-4.1-.4-1.7-1-1.2-.9-2.5-.7-.7,0-1.1-1.1-1.9-1.2-.3.4-.6.8-1.3.6-.3,0-.2-.5-.4-.7-.5-.5-.7,0-3.7-.3-3-.2-4.3.7-3.7-.4,15.4-.3,10.3-.4,11.3.8,2.8-.5,2.3-.4,2.5-.6-.8-.4-1.7-.5-2.5-.3-.6-.7.3-.6-8.7-.6-3.9,0-4.3,0-5-.3-.8-.3-6.8-.2-7.6-.6,10-.6,5.5-.9,8.9-.8.9,0,9.3.6,8.5-.4-.5-.6-1.4,0-1.8-.8-.2,0-.3.1-.4.2-1.7,1.1-1.5-1.9-2.4.1-1.4.5-8.5.1-10.1,0,.3-.4.7-.2,1-.3.3,0,.7-.3,1-.2.9,0,1.8,0,2.6-.6,1-.6,7.6-.2,9.2-.7-1.4-.6-1.9-.2-6.5-.3-1.1,0-2.3-.8-2.2-1.1.1-.6-.1-.4,2.3-1-2.7-.9-2.6-.8-2.6-1.1,0-.2.4-.3.6-.4,8.4-.5,11.4.4,10.3-.9-1.5-.3-5.6.2-6.7-.1-1.1-.3-2.3.4-3.6-.2,0-.3.1-.5.2-.8-.9-1.1-1.8-2.3-2.8-3.4.9-1.1,2.2-1.4,3.4-1.4.3-.5-.1-.7-.9-1.1,0,0,.1.2-.2-.7ZM222,58.7c.1.2.2.1,0,0-.1-.2-.1-.2,0,0ZM45.1,56.4c0,.3,0,.2.2.3-.4-.4-.4-.5-.8-.6,0,0-.2,0-.2,0-.2.3.1.2.9.3ZM59.3,21.9c-.4.3-.5.2-.2.8,0,0,.3,0,.2-.3-.1-.7-.3-.5.3-.7,0,0-.1-.2-.1-.2-.2,0-.2.2-.2.4ZM27.4,48.5c-.2-.5.1.5,1.9.4,0,0,.2-.2.3-.3-.8-.3-1.5,0-2.2,0ZM182.6,5.7c2.1-.1,1.6,0,2-.4-1.8,0-1.2,0-1.9.5-1.8,0-.9,0-1.2-.2-.4-.4-.9-.2-1.3,0,0,0-.1.3-.1.4,0,.3.7,0,1.6-.2q.6.4,1.1,0ZM100.7,66.2c.8,0,1.6,0,2.6-.3-.8,0-1.4,0-1.9,0-.3,0-1.1.7-.7.3ZM44.6,54.2c.6.4,1.3.5,1.3,0,0-.3-.1-.2-1.3,0-.9-.8-2.5-.8-3.6-.4,0,0,0,.3,0,.5,1.2,0,2.5-.1,3.7-.2ZM194.7,24.7c-1.3,0-2.7,0-4,.3.6.1,1.3.2,1.9.2,1.9,0,1.6-.1,2-.6.2,0,1.1.6.9,0,0-.3-.3,0-.9.1ZM237.6,17.3c.1,0,.9.8,1,0,2.2,1.3,3-.5,5.7.4.8.3,1.5,0,2.3-.4.7.3,1.4.6,2.2.3.7-.3,1.5.1,2.1-.6-.2,0-.4-.2-.5-.2-11.8,0-11.3-.1-11.6.5-.4,0-.7,0-1.1,0-.2-.7-.6-.6-2.9-.6-.2.4-.1.7,0,.7,2.6-.1,1.1.4,2.8-.2ZM242.2,51.3c.3,0,.7,0,1-.3.5-.3,1-.7,1.6-.7,2.5.3.3,0,4.2-.4-1.1-.4-3.5,0-6-.4-.7-.1-1.4,0-2.2.4.5.5,1.2.7,1.5,1.5-.2,0-.3,0-.5,0-.5,0-.1.4,0,.3.1,0,.2-.2.3-.3ZM35.7,22.4c.4.2.7.5,1,.5.9,0,1.8.3,2.7-.1.9-.4,1.7.3,2.2,0,1.2-.5,2.1.8,3.6-.6.4-.4,1-.2,1.3-.7-.7-.4-27.8-.2-28.9.1,19.6.5,13-.3,16.5,1.2.5-.2.9-.4,1.5-.6ZM82.4,6.4c1.4,1.5,7.9,1.2,10.2,1.1.3,0,.6-.2.9-.3,0,0,.1-.3.2-.5-.8-.4-9.8-.3-11.3-.3ZM159.3,52.2c-3.1-1.3-4.3-.5-6.9-.3-1.5,0-1.6,0-3.7,0-.5.7.3.5,1.5.8,1.6.4,1.6-.3,3.5-.3,1,0,1.9.7,2.9.8.1,0,.3.2.4.3.2.2.2.1.5,0,.9-1.3.5-.9,2-1.4ZM216.8,24.7c2.9.2,2.9-.1,4.3,0,11.5.6,13.4-.3,12.2-.4-17.8-.1-15.7-.3-16.6.4ZM148.3,57.8c0,0,0,.2,0,.3,12.9.4,11.1.6,11.6.4.4-.1,0-.6,0-.6-.3-.2-.4-.3-5.5-.6-3.6-.2-3.5,0-6,.5ZM219.9,58.4c-2.5,0-11.2,0-13.6,0,0,0,0,.1,0,.3.7.4,1.4.6,2.2.4,2.2-.7,10.1.3,11.4-.7ZM207.8,6.7c-10.7-.9-10.3-.5-10.3.3,0,.5,2.8.4,3.9.3,2.5-.4,4-.3,6.4-.6ZM215.5,62.4c.4.3.4.4.5.4,2.3.1,4.5-.2,6.8,0,1,0,3-.1,3.6-.2-7.6-.5-9.6-.3-10.9-.2ZM200.2,58.6c0,0,0-.2,0-.2-5.6-.3-9.9-.1-10,0-.8.9.2.6,10,.3ZM72.6,7.2c-1.4-.3-2.7,0-3.9-.6-.1,0-.3,0-.5,0-1.4.5-2.4-.7-3.3.7,2.6.3,4.5.3,7.7,0ZM94.1,4.4c-1-.3-9.4-.5-11,0,3.8.1,7.1-.1,11,0ZM239.8,47.9c0,.4-1,.3,9.3.4,0,0,.2,0,.2-.1-.3-.4.8-.3-9.5-.3ZM196.7,24.7c4.6.3.1.9,7.2-.3-2.5-.3-4.8-.3-7.2.3ZM41.4,55.9c-1.9.2-3.9-.2-4.8.4,1.3.6,4.3,1.2,5.2.4,0-.2-.2-.5-.3-.9ZM174.9,5.4c-2.6,0-5.2-.7-8.3,0,3,.5,5.7.6,8.3,0ZM3.3,10.5c2.9,1.5,4.1,0,5.9.7.3,0,.3-.5,0-.6-1-.3,0-.3-6-.2ZM223.2,50.4c-.2-.2-.3-.5-.5-.6-1-.5-2.1-.4-3.2-.2-.1,0-.2.2-.3.4-.5.8,2.1,1.3,4,.5ZM90.8,56.8c1.7.3,2.9-.2,2.9-.7,0-.7-1.4-.7-2-.4-.2.3-.5.6-.9,1.1ZM141.2,52c-.3,0-2.6-.4-2.8.1-.2.6,1.3,1,1.8,1.2.1,0,.8-.5,1-1.3ZM251.8,32c-.4-.3-.8-.4-1.1-.2-1,.5-1.4.1-3,.7,1.1.3,3.2.8,4.1-.5ZM42,50.3c-1.5,0-2.9-.9-4.7-.6,1.7.6,3.1,1.1,4.7.6ZM188.3,26.6c.8.5,1,.5,5,.3,0,0,0-.3.1-.5-1.6-.2-3.1,0-5.1.1ZM31.7,8.8c.2-1.2-1.4-1-2.4-.5,0,.2,0,.5,0,.5.8.4,1.6.4,2.4,0ZM155.6,24.5c-2-.3-3.4-.2-5.1,0q2,.5,5.1,0ZM94,52.2c-1.4-.2-2.8-.2-4.6,0,1.8.1,3.2.3,4.6,0ZM233.6,62.4c-4.9,0-3.9,0-4.6.3,3.7.2,3.3.2,4.6-.3ZM152.4,4.7c1.2.3,2.5.4,4,.2-.7-.3.2-.2-4-.2ZM262.7,50.2c-.2-.6-.7-.5-1.1-.6-.8,0-1.6-.3-2.4.3,1.7.4,1.9.4,3.5.2ZM62.2,21.4c0,.1,0,.2,0,.2.1,0,.3.2.4.2.6,0,1.1.2,1.5.7.3-.4.8-.5.8-1.3-.9.1-1.8-.2-2.6,0ZM98.6,7.3c1.1.2,2.1.3,3.1,0,.1,0,.2-.3.3-.4-.4-.2,0-.3-2.9,0-.1,0-.2.2-.5.4ZM201.6,49.9c-.5-.4-2.2-.2-2.9,0,1,.2,2,.2,2.9,0ZM122.2,68.2c-3.6,0-2.8-.1-3.4,0,.2.1-.1.2,2.2.1.2,0,.5,0,1.2-.2ZM255.8,49.7c0,.8,1.2.8,2,0h-2ZM114.7,49.7c.2.1.2.2.2.2,4.3.3,3.1-.5-.2-.2ZM38,48.6c.1.2.2.3.3.3.7,0,1.5,0,2.2-.2-.1-.2-.2-.3-.3-.4-.7-.2-1.5,0-2.2.2ZM272.4,35.5c-.6-.3-1.3-.1-2,0,.8.2,1.4.3,2,0ZM261.6,51.6c.6,0,1.3.4,2,0-.7-.4-1.3,0-2,0ZM201.2,26.9c0-.2.2-.2-1.4-.2.4.2.9.2,1.4.2ZM233.3,17.6c0-.7-.7-.8-1-.4-.1.2,0,.5.4.5.2,0,.4,0,.7,0ZM34.8,52.1c.5.3,1.1.3,1.9,0-.6-.3-1.1-.3-1.9,0ZM237,53.3c-1.4-.3-1.4-.3-2.1,0,.7.4.7.4,2.1,0ZM58.6,54q.9.3,1.6-.2c-1.1-.3-1.1-.3-1.6.2ZM242.3,56.8c-.7-.3-1.1-.3-1.6,0,.4.2.9.3,1.6,0ZM77.8,52.2c.2,0,1,.2.9,0,0-.2,0-.4-.2-.5-.5-.3-.7.3-.7.5ZM243,53.3c-.4-.4-1.6-.3-1.4.1.2.3.9.4,1.4-.1ZM195.2,26.8c.1,0-.2-.4-.5,0,.3,0,.7,0,.5,0ZM36.4,54.3c.3.4.7.2,1.2,0-.6,0-.9,0-1.2,0ZM168.9,58c.5,0,.7,0,1.1.1-.3-.4-.6-.2-1.1-.1ZM80.5,4.2c0,.2,0,.1.9.1,0-.1.1,0-.9-.1ZM109.4,49.8c-.4-.4-.7-.2-1,0,.4.2.7.3,1,0ZM83.4,63.6c-.2,0-1.7-.3-1,.6.3-.2.6-.3,1-.6ZM257.1,14c.8.5.9.6,1,.6.2,0,.3-.5,0-.6-.2,0-.5,0-.9,0ZM175.5,64.2c-.4-.3-.7-.4-1.1,0,.4.4.7.5,1.1,0ZM207.3,49.9c0,0,.1,0-.9,0,0,0-.1,0,.9,0ZM212.4,49.8c0,.1,0,0,.9,0,0-.1.1,0-.9,0ZM236,49.9c0,0,.1,0-.7-.1,0,.1-.1,0,.7.1ZM258.4,22.2c-.4-.4-.7-.2-1.1,0,.4.2.8.4,1.1,0ZM275.8,35.4c-.4-.2-.8-.2-1.3,0,.5.1.9.3,1.3,0ZM24,22.6c-1-.2-.6-.2-1.3.1.6.2.9.3,1.3-.1ZM186.3,24.4c-.4-.2-.8-.2-1.3,0,.4.2.8.2,1.3,0ZM237.1,24.5c.4,0,.7.2,1-.1-.4,0-.7-.2-1,.1ZM226.5,5.5c-.6-.1-.4-.1-.5,0,.2,0,.3.2.5,0ZM23.4,14.1c.1.2,0,.2.6,0-.2-.3-.4-.2-.6,0ZM33.5,14c0,.2-.1.1.6.2,0-.2.1-.1-.6-.2ZM231.1,15.8c.1,0,.3.2.4,0h-.4ZM246.8,15.8c.1,0,.3.3.4,0h-.4ZM249.7,15.8c-.1,0-.3,0-.4,0,0,0,0,0,0,0,.5,0,.4,0,.4,0ZM67.2,21.7c-.2-.2-.2-.3-.7-.2,0,0-.1,0-.2.1.3.4,0,.4.9,0ZM21.4,22.7c-.1-.2,0-.2-.5,0,.1.2,0,.2.5,0ZM26.4,22.7c0,.1,0,.1.5.1,0-.1,0-.1-.5-.1ZM30.9,22.6c-.2,0-.4-.3-.4.2.5,0,.4,0,.4-.2ZM213.6,24.5c-.3-.2-.6-.3-.9,0,.3.2.6.3.9,0ZM241.8,24.4c-.5-.2-.3-.2-.8,0,.5.2.3.2.8,0ZM260.8,38.3c.1.2,0,.2.6,0-.2-.3-.4-.2-.6,0ZM33.7,54.4c-.5-.2-.3-.2-.8,0,.5.2.3.2.8,0ZM175.2,30.8c-.3-.3-.5-.2-.8,0,.3.3.5.3.8,0ZM85.6,63.7c-.2-.2,0-.2-.6,0,.2.2,0,.2.6,0ZM160.1,64.5c.1,0,.3-.2.4-.2-.1,0-.2-.3-.3-.3-.3,0-.6.2-.5.3,0,.1.2.2.4.2ZM250.7,48.1c.2,0,.3,0,.5,0-.2,0-.3,0-.5,0ZM201.7,58.4c0,0,0,0,.6,0,0,0,0,0-.6,0ZM179.2,26.8c-.6-.1-.4-.1-.6,0,.6.1.4.1.6,0ZM209.3,6.6c0,.1,0,.1.2,0h-.2ZM210.8,6.7c.3,0,.3,0,0-.1h0ZM61.8,8.4c.3,0,.3,0,0,0h0ZM22,14.1c-.2-.1-.1-.1-.2,0h.2ZM29.4,14c0,0-.1,0-.2.1,0,0,0,.2.1.2.2,0,.3,0,.3-.2,0,0-.1,0-.2,0ZM41.7,14.7c0-.2,0-.1-.2,0h.2ZM229.5,15.8c0,.1,0,0,.2,0h-.2ZM252.5,16.9c-.3-.2-.5.1,0,.1,0,0,0,0,0-.1ZM58.9,19.8c-.3-.2-.3.1,0,.1,0,0,0,0,0-.1ZM243.2,22.1c0,.2,0,.1.2,0h-.2ZM262.7,22.1c.1.2,0,.2.4,0-.2,0-.1-.1-.4,0ZM206.6,26.7c-.5-.2-.4-.2-.6,0,.5.2.4.2.6,0ZM228.7,32c-.3,0-.2,0-.3,0,.3,0,.2,0,.3,0ZM264.6,38.1c-.2,0-.3,0-.2.2,0,0,.1,0,.2,0,0,0,0-.1,0-.2ZM266,38.2c-.2,0-.3,0-.1.2,0,0,.1,0,.2,0,0,0,0,0,0-.1ZM232,46.3c.2.1.1.1.2,0h-.2ZM32.5,48.1c-.2,0-.2,0,0,0h0ZM252.8,48.3c.3,0,.3-.1,0-.2,0,0-.1,0-.2,0,0,0,.1,0,.2.1ZM255.3,48.2c0-.2,0-.1-.2,0h.2ZM45.1,50c0-.2,0-.2-.2,0h.2ZM113.3,49.9c.3,0,.3,0,0,0h0ZM233.5,49.9c.3.2.4-.1,0-.1,0,0,0,0,0,.1ZM264.9,49.9c.3.2.4-.2,0-.2,0,0,0,.1,0,.2ZM237.4,51.2c-.1.3-.2.2,0,.2v-.2ZM153.3,54c-.1-.4-.6,0-.2,0,0,0,.1,0,.2,0ZM56.5,56.8c-.2-.2,0-.2-.4,0,.2,0,.1,0,.4,0ZM238.8,56.8c0,0,0-.1,0-.2-.3-.1-.6.1-.2.2,0,0,.1,0,.2,0ZM141.7,58c0-.2,0-.1-.2,0h.2ZM111.1,66.5c.3.1.2.1.2,0h-.2ZM233.4,53.4c.1-.2.1-.1,0-.2v.2ZM106.1,67.2c-.2-.1-.1-.2-.2,0h.2Z"/>
  <path class="st0" d="M214.9,67.8c.1-.1.2-.3.4-.3,1.2,0,2.3-.3,3.5-.2.8,0,1.5-.2,2.1-.8.9.2,1.7.4,2.7.1,2.3-.7,4.7.5,9.5,0,3-.3,4.5,1,7.3-.2,1.1.6,2.2.7,3.4.5,1.1-.1,2.2.1,3.3.2,15.8,0,11.5,0,13.1,0,2.3,0,3.4.5,5.3.3.2,0,.5.1.8.3-.4.1-.6.3-.8.3-3.6-.3-5.2.9-9.5.6-4.5-.3-6.8-.2-11,.9-1.7.4-1.2.4-11.5-.3-2.1-.1-1.4-.7-6-.6-8.4,0-8.7,0-9.6-.3-.4-.2-2,.4-2.9-.4Z"/>
  <path class="st0" d="M259.4,73.4c-2,1.9-.1,1.9-17.7,1.1-5.5-.3-6,0-9-.5-.2-.3-.4-.6-.6-.9-4.4-.8-4.4-.3-6.5-.8,9.3-.6,20.9.2,29.7.3,1.8,0,2.7-.4,4.1.9Z"/>
  <path class="st0" d="M26.9,62.4c-.3.6-.7.3-1.2.4-.8.1-.3,0-3.6.9,0,.3,0,.4,0,.7,1.3.5,10.3.2-1.2,1.1-.1.1-.3.4-.5.5-.5.3-1,0-1.5.1-1.5-1.2-5.1,0-1-1.3.6-.2,1.2,0,1.7-.4-.1-1.2,0-.8-5.8-.9-.6,0-1.2.1-1.7-.2,0,0-.2-.1-.1-.2,0-.2,0-.4.2-.5,3-.8,6.6.2,7.7-.7.5-.4,1.2.6,1.6-.3-.7.6,4.9.7,5.5.7ZM21.2,64.3c-.2-.2,0-.2-.5,0,.2.2,0,.2.5,0Z"/>
  <path class="st0" d="M11.1,69.3c1.2-.2,28.4-.4,30.1.1-1.3.2-2.5.4-3.6.3-4.9-.3-22.7.8-25.9.4-.4,0-.6-.3-.6-.9Z"/>
  <path class="st0" d="M43.9,1.9c-3.3.6-32.2.4-35.3.2.1-.3.2-.5.3-.7,0,0,35,.6,35,.6Z"/>
  <path class="st0" d="M129.9.7c-2.4.4-21.1.4-25.4.2.1-.4.5-.7.8-.6,3.5.6,20.4.2,24.6.5Z"/>
  <path class="st0" d="M1.7,44.1c0,0-.4-.5,0-.6.7-.2-.7-.1,13.6-.3.9,0,.9.2,1,.4-.3.2-13,1.1-14.5.5Z"/>
  <path class="st0" d="M11.1,7.7c-.2-1.1,1.5-1.1,2.5-.9,2.6.4,2.5-.1,4,0,1.7.2,3.3-.2,5,.2,0,.2.1.4.2.5-.4.6-10.6.5-11.6.2Z"/>
  <path class="st0" d="M248.2,4.8c-12.5,1.2-21.7,0-12-.2,4.7-.1,9.2.1,12,.2Z"/>
  <path class="st0" d="M46.8,68.8c2.3.3,4.5-.5,6.8,0-.6.6-2,.2-3.2.7-.4.1,0,.1-7.5,0,0-.2-.4-.1,4-.7Z"/>
  <path class="st0" d="M82.4.5c-4.1.8-6-.2-11.5.5,0,0-.2-.2-.2-.4,0-.2.4-.4.6-.5.3,0,9.1-.2,11.1.1,0,0,0,.2,0,.3Z"/>
  <path class="st0" d="M33,67.8c-3.2.4-5.5,0-9.7.6-.8.1-1.1-.8-.7-.9.4-.1-.5-.1,9.6,0,.2,0,.3.1.9.3Z"/>
  <path class="st0" d="M262.4,56.5c.3-.3.7-.5,1.1-.9,2.2-.4,2-.4,4,.4,0,0,0,.1.1.2-4.2.4-3.6.2-4.1,1.1-.4.2-.8.3-1.1,0,.1-1,.1-.9,0-.8Z"/>
  <path class="st0" d="M152.2,1.6c-1.7.1-3.4.1-5.2,0,.2-.3.3-.7.4-.7,1.5-.2,3.8-.5,4.8.8Z"/>
  <path class="st0" d="M281.2,55.9c-1.6.6-2.3.6-5.6.3,0-.1.2-.2.3-.3,2.2-.4,3.7-.7,5.4,0Z"/>
  <path class="st0" d="M260.9,31.6c-1.5.1-3,0-4.7-.2.8-.4,1.5-.2,2-.7.9,0,1.8-.2,2.7,0,.2,0,.2,0,0,.7Z"/>
  <path class="st0" d="M94.1.3c.9-.2,1.8-.3,2.7,0,.2,0,.3.3.5.6-.8.2-2.3.3-3.1,0-.2,0-.2-.2-.1-.5Z"/>
  <path class="st0" d="M247,70.6c0,.2-.1.4-.2.5-1,.5-2,.6-3.1.2-.4-.1-.2-.9.3-1,.9,0,1.8,0,2.7,0,.1,0,.2.2.3.3Z"/>
  <path class="st0" d="M275.6,49.2c.7-.6,1.2-.3,6.2,0-.2.2-.3.3-.3.3-1.4-.2-1.7.1-5.4,0-.1,0-.3-.2-.4-.3Z"/>
  <path class="st0" d="M90.1.4c-1,.7-2.1.6-3.1.5-.7-1,1.2-.6,2.9-.7,0,0,.1.1.2.2Z"/>
  <path class="st0" d="M255.1,5c-5.4,0-4.7,0-4.9-.1.6-.2-.5-.2,5,0,0,0,0,.1,0,.2Z"/>
  <path class="st0" d="M225.6.2c-1.4.5-2.7.1-4.1.2.7-.5,1.5-.5,4.1-.2Z"/>
  <path class="st0" d="M212.3,1.3c-.3.5-3.4.3-3.9.3.8-.5,1.4-.5,3.9-.3Z"/>
  <path class="st0" d="M271.2,25.6c1.6-.4,3-.3,4.5,0-1.5.2-2.8.3-4.5,0Z"/>
  <path class="st0" d="M187.1,3.1c1.2-.2,2.3-.4,3.4,0-1.1.3-2.2.4-3.4,0Z"/>
  <path class="st0" d="M8.9,62.6c1.4-.8,3.4.8.3.6-.3,0-.3-.3-.3-.6Z"/>
  <path class="st0" d="M9.5,39.4c.7-1,.7-1,1.6-.4,0,.7.1.6-1.2,1.1-.2-.3-.3-.5-.5-.7Z"/>
  <path class="st0" d="M271.1,56.1c2.6-.1,2.1-.2,2.4,0-.2.2.3.2-2.3.2,0,0,0-.1,0-.2Z"/>
  <path class="st0" d="M14.3,39.1c-.6.6-1.4.1-2.1.4,0,0-.2-.1-.2-.2,0-.2,0-.4.2-.4,2.3-.6,1.9.6,2.1.2Z"/>
  <path class="st0" d="M14.9,16.8c2.6,0,2.1,0,2.4.2-.7.4-.7.4-2.4-.2Z"/>
  <path class="st0" d="M53.6,2.6c-.8,0-1.5.2-2.4,0,.2-.2.3-.3.4-.3.7,0,1.3-.1,2,.3Z"/>
  <path class="st0" d="M31.1,62.6c-.9,0-1.8.3-2.8,0q.8-.5,2.8,0Z"/>
  <path class="st0" d="M251.5,65.3c-.2.5.2.3-1.3.8-.1-.2-.2-.4-.2-.6,0-.1.2-.3.3-.4.7-.2,1,0,1.2,0Z"/>
  <path class="st0" d="M194.3,2.9c.7-.5,0-.4,2.4-.4-.4.5-.8.2-1.2.3-.8.2-1.3,0-1.2.2Z"/>
  <path class="st0" d="M257.1,4.9c.5-.2,1,0,1.6,0h-1.6Z"/>
  <path class="st0" d="M10.5,41.1c1.6.5.5,1.4-.5.8,0-.4.2-.6.5-.8Z"/>
  <path class="st0" d="M255.9,9.9c0,.1.3.3.3.5,0,.4-.2.6-.6.6-.6,0-.7-1.1.3-1.1Z"/>
  <path class="st0" d="M14.9,56.2c.5-.2,1-.3,1.7,0-1.1.1-.7.2-1.7,0Z"/>
  <path class="st0" d="M264.7,57.3c.4-.5.9-.3,1.3,0-.3.9-.6.9-1.3,0Z"/>
  <path class="st0" d="M102.1.7c-.8.4-.8.4-1.6,0,.5-.4,1-.3,1.6,0Z"/>
  <path class="st0" d="M218.9.9h-1c.4-.3.7-.3,1,0Z"/>
  <path class="st0" d="M143.3,1.3h.8c-.2.4-.5.1-.8,0Z"/>
  <path class="st0" d="M47.3,2.6c0,0-.2,0-.2,0,0-.1,0-.3.2-.4.4-.3.8.1,0,.4Z"/>
  <path class="st0" d="M199.2,2.6c-.3,0-.6.2-.9,0,.3-.1.6-.2.9,0Z"/>
  <path class="st0" d="M267.1,60.3c.3.7-.8.8-1.1.1,0,0-.3,0,1.1-.1Z"/>
  <path class="st0" d="M14.5,65.4c-.5.4-.9.4-1.3,0,.5-.4.9-.5,1.3,0Z"/>
  <path class="st0" d="M18.6,67.7c.3-.3.7-.4,1.1-.3,0,0,.2.2.2.4,0,.2-.8.5-1.3,0Z"/>
  <path class="st0" d="M132.7.9c-.3.3-.6.2-.9,0,.3-.3.6-.2.9,0Z"/>
  <path class="st0" d="M134.4,1.1c-.1.2,0,.3-.4,0,0,0,0-.2.1-.2.2,0,.3,0,.3.3Z"/>
  <path class="st0" d="M214.4.8c.6-.1.4-.1.6,0,0,.1,0,.2-.5.2,0,0,0,0,0-.2Z"/>
  <path class="st0" d="M205.6,1.8c0,0,.2,0,.2,0,0,.1,0,.2-.2.2,0,0-.1,0-.2,0,0,0,.2-.1.2-.2Z"/>
  <path class="st0" d="M55.8,2.6c-.5.2-.3.2-.8,0,.5-.2.3-.3.8,0Z"/>
  <path class="st0" d="M.6,36.7c-.6.2-.4.1-.6,0,0-.1,0-.2.6-.2,0,0,0,0,0,.2Z"/>
  <path class="st0" d="M277.5,51.2c-.2.8-.9.2-.8-.3,0-.3,1-.3.8.3Z"/>
  <path class="st0" d="M32.8,62.5c.5-.2.3-.3.8,0-.5.2-.3.3-.8,0Z"/>
  <path class="st0" d="M40.2,66c-.3.2-.6.3-.9,0,.3-.3.6-.3.9,0Z"/>
  <path class="st0" d="M273.3,49.2h.7c-.3.3-.5.3-.7,0Z"/>
  <path class="st0" d="M84.1.3c0,0-.1.1-.2.1-.4,0-.2-.3,0-.3,0,0,0,.1.1.2Z"/>
  <path class="st0" d="M91.6.8c.2,0,.2,0,0,.1h0Z"/>
  <path class="st0" d="M216.3.9c0-.2,0-.1.2,0h-.2Z"/>
  <path class="st0" d="M192.2,3.2c-.2,0-.2,0,0-.1h0Z"/>
  <path class="st0" d="M194.2,2.8c-.5.4-.3.4-.5.2.2,0,.4-.1.6-.2h0Z"/>
  <path class="st0" d="M13,17.4c0-.3,0-.2,0-.2v.2Z"/>
  <path class="st0" d="M19,17.6c-.2.1-.2.1-.4,0,.2-.1.2-.1.4,0Z"/>
  <path class="st0" d="M13.6,41.8c-.5.2-.4.2-.6,0,.5-.2.4-.2.6,0Z"/>
  <path class="st0" d="M256.8,53.8c.3.1.3,0,0,.1h0Z"/>
  <path class="st0" d="M259.4,54c0,0-.1,0-.2-.1,0,0,.2,0,.2,0,.3,0,.2.2,0,.2Z"/>
  <path class="st0" d="M269,56.1c0,.2,0,.2-.2,0h.2Z"/>
  <path class="st0" d="M261.6,60.8c-.3,0-.2,0-.2-.1h.2Z"/>
  <path class="st0" d="M267.4,62.5c.2.1.2,0,0,.1h0Z"/>
  <path class="st0" d="M23.4,42.6c0,.2,0,.2,0,0h0Z"/>
  <path class="st0" d="M10.5,45.1c0,.2,0,.1,0,.1h0Z"/>
  <path class="st0" d="M266,60.5c-.2,0-.2-.1,0,0h0Z"/>
  <path class="st0" d="M21.4,61.6c-.1,0-.1,0,0,0h0Z"/>
  <path class="st0" d="M35.3,62.3c0,.2.1.2,0,.2v-.2Z"/>
  <path class="st0" d="M241.7,70.9c.2-.3.2-.2,0,0h0Z"/>
  <path class="st0" d="M241.7,70.8c0,.3-.1.3,0,0h0Z"/>
</svg>