<?xml version="1.0" encoding="UTF-8"?>
<svg id="Layer_1" xmlns="http://www.w3.org/2000/svg" version="1.1" viewBox="0 0 283.3 70.7">
  <!-- Generator: Adobe Illustrator 30.6.0, SVG Export Plug-In . SVG Version: 2.1.4 Build 109)  -->
  <defs>
    <style>
      .st0 {
        fill: #ff1229;
      }
    </style>
  </defs>
  <path class="st0" d="M282.2,23.6c-1.5,1.7-4.5.4-5.7-1.6h0s0,0,0,0c0,0,0,0,0,0,0,0,.8.7,1,.5.2-.2.5-.7,1-1.5-2.3-4.8-5.3-.7-6.8-5.9-.5-1.6-1-3-1.9-4,1.4,0,2.7.5,4.4-.5-.7-2.2-1.9-1.6-2.7-1.5-.8-2.2-2.2-1.1-3.6-.9-.8-.1-1.9-2.2-3-1.3-2,1.7-4.4.5-6.5.6-.2-.9-.4-.9-.6,0-1.4-.5-.4-1.8.8-2,.6-.3.6-.5,0-.6h3.2c0-.1,3.4,0,3.4,0,.4-.3,1-1,.4-1.8-.7-.9-2.2-1.4-2.9-1.1-4.1,1.8-7.6-2.1-9.3.4-.3-.1-.9.4-1.2.6-.3.2-.7.1-1,.2,0-1.5-.9-1.2-1.3-1.2-.8,0-1.4,0-1.7,1-.3.2-.9,0-1.2,0-2-.8-4.1-1.1-6.4-.9l-3.7.2c-1.1,0-1.8-.6-2.9-.2-1.2.5-2.7.1-4,.1-.9-1-2.6-.9-3.7,0h-10.6c0-.1-13.8,0-13.8,0-2,0-3.5,0-5.5,0l-10.7-.2c-2.4,0-5,1-7.5.2-2.6-.8-4.9-.4-7.5-.3-2.6.1-5.2-.5-7.6.6,0-2.2-1.7-1.9-2.6-.5h-2s-1.9-.2-1.9-.2h-3.9c0-.1-2.3,0-2.3,0l-4.4.4c-2.7.2-5.4-1.6-8.3.5l-1.9-1.8c-4.5,1.7-8.8.8-13.2.7l-6.1-.2-.4-.6c-8.3,0-16.7,0-25.1.3-2.9-1.2-6.1-1.6-8.7.3h-1.9c0-.1-4.5-.3-4.5-.3-2.4,0-4.7.3-7.1.4l-4.6.2c-3,.1-6.1-1.6-9.1.1-.8.5-1.8-.6-2.5-.7-.8-.1-1.7-.2-2.4,0-1.6.2-3.3.8-4.9.7C40.9.1,36.1,0,31,1h-.6c0-.1-.6-.1-.6-.1-3.4-.2-6.6-1-7.1.7-.2-.9-.4-.9-.6,0l-7.1-.3v1c-.5-.1-.7.3-.8,1,0,.4,0,1,.6,1.1l4.5.2,3.9.2c0,.3,0,.7,0,1h-1.3c-3.1-.2-5.4-1.1-6.5.9-1.1-.3-2.4-.7-3.5-.7,0,2.4.5,2.9,1.1,3.4,0,.2,0,.8,0,1-.4.5-.7.9-.9,1.2-1.9,1.5-3.6-2.2-4,1.5-1,.8-1.4,2.5-1.1,4.3,0,.3.2.7.3,1,.1.3.2.6.4.8.2.7.2,1.4.2,2.2l-2.9.6c.2,1.7.9,1.7,1.4,2.2-.4,0-1.3,0-1.6,1.1-.1.7-.2,1.4-.4,1.7-.3.4-.8.4-1.1.5-1.1-.8-2.3-1-3.1,1.2l2.6.4v2c-.1.4-.2,1.1-.1,1.4.3.7.9.9,1.3.7v1.1c0,2.2-1.2,2.3-1.1-.1-.3.2-.7,2-.5,2.2l1.6,2c.4.5-1.6,2.4-1.5,3.4.1,1.6,1.5,2.8,3.1,2.6-.7.9-1,1.6-1.9,2.2l-.4.2c.9.2.6,1.2.6,1.3-.4,0-.9,0-1.1,0-.7-.5-1,.5-.7,1.1,1.7,2.6,5.2-.8,5.7,6.8.9-.6,1.9-.5,2.2,1.2-.1.2-.3.3-.4.5-1.5-.5-2.6-.3-3.3.8.1.7-.3,1.5-.1,1.9.3.8,1.2,1.5,1.5,2,1.5,2.3,4,1.2,6.2,1.2l-1.2,3.9,4.4,2,23.7.3c.6,0,1.3-.3,1.9-.6.3,0,.6,0,.9-.1,2,1.7,11.9-.9,18.7.7,2.9,1.6,4.6,1.3,5.2-.7.2,2.2,1,2.3,2.6.2.2.9.4.9.6,0,.2.9.5,1,.7,0,.5,2.1,2.4,2.6,2.6-.1.9,2.5,4.1,2.7,5.2.3.8.3,2.2-.8,3.4.6.8,1,1.7,0,2.3,0l9.7.2c2,0,5-.3,5.9-1.7.9,0,2,.8,2.7,1.3.5.5.8-.1,1-1,1.2,2.5,4.9,3.4,6,.2l1.2.2,1.7-.5,2.8.2c2.3-.2,4.5,0,6.7.6l.4-.9h10.8s17.6-.2,17.6-.2c2.9,0,5.5,0,8.4,0l16.8-.2,10.4.2c3.6,0,7.2-1,10.9-.3,9.6.5,19.3.8,29.1.8l1.1-1.2c0,.7.5.6.7.6,8.2.5,16.7.9,24.9.2,2.7,1.1,5.5.9,8.5-.4,2.7,1.8,4.7,1.6,5.9-.6,1.6-3.2,1-4.6-1.3-3.6l.4-.5c.3,0,.7,0,1-.2.4-.3.6-1.2.5-2-.4,0-.9-.5-1.4.2-.2-1.9-1.3-2-1.2,0-.9-.5-1-1.2-.7-2.7.7,1.6,1.1,1.3.7-.4,1.8,1.4,4.4.8,6.1-1.1.1,0,.2,0,.4.2.1.1.4.3.5.3h.9c.3-.5,1.9.4,1.7-1.9-.4-.2-.4-.9-.2-1.1h-1.3c-1.5,0-3-.3-4.5.6l-.6-1.6c2.2-.3,4.4-1,6.5-1.9-.6-4.7-5-2.2-5.4-3.8-.4-2.2,3.5-6.9,7.2-6,.9.2,2.3-1.4,1.7-2.7-.5-1.2-2.1-1.7-2.8-2.4,1.2-2.6,4.5-2.9,4.2-5.3,0-.4-.3-.7-.7-.6-.7.3-1.5-.3-1.8-.9.4-1,.3-1.8-.1-2.4,1.2,1.2,4.7,1.7,5.4-.5.9-.7.4-3.2-.6-3.1ZM197.3,49.3c0,.1,0,.3,0,.4v-1c0,.2,0,.4,0,.6ZM181.9,53.2c0,0,.2,0,.3,0,0,0-.2,0-.3,0ZM276.4,19.5c-.3,0-.6,0-.9-.2.4,0,.7,0,.9.2Z"/>
  <path class="st0" d="M279.5,15.8c-1.7-.6-3-.8-4.4,0,1.8,1.6,3.2,2.5,4.4,0Z"/>
</svg>