<?xml version="1.0" encoding="UTF-8"?>
<svg id="Layer_1" xmlns="http://www.w3.org/2000/svg" version="1.1" xmlns:xlink="http://www.w3.org/1999/xlink" viewBox="0 0 745.9 73.9">
  <!-- Generator: Adobe Illustrator 30.6.0, SVG Export Plug-In . SVG Version: 2.1.4 Build 109)  -->
  <defs>
    <style>
      .st0 {
        font-family: MyriadPro-Regular, 'Myriad Pro';
        font-size: 45.1px;
      }

      .st0, .st1 {
        fill: #fff;
      }

      .st2 {
        fill: none;
      }

      .st3 {
        clip-path: url(#clippath-1);
      }

      .st4 {
        clip-path: url(#clippath);
      }
    </style>
    <clipPath id="clippath">
      <rect class="st2" x="0" y="1.2" width="66.7" height="67"/>
    </clipPath>
    <clipPath id="clippath-1">
      <rect class="st2" x="77.3" y="10.9" width="231.2" height="49.1"/>
    </clipPath>
  </defs>
  <g>
    <path class="st1" d="M470.7,18.6c0,0,0-.1,0-.2,0,0,0,0,0,0,0,0,0,0,0,0,0,0,0,0,0,0,0,0,0,0,0,0,0,0,0,0-.1-.1,0,0,0,0,0,0,0,0,0,0,0,0L439.6.1c-.3-.2-.6-.2-.9,0l-30.8,18s0,0,0,0c0,0,0,0,0,0,0,0,0,0-.1.1,0,0,0,0,0,0,0,0,0,0,0,0,0,0,0,0,0,0,0,0,0,0,0,0,0,0,0,.1,0,.2,0,0,0,.1,0,.2,0,0,0,0,0,0v36.3s0,0,0,.1c0,0,0,.1,0,.2,0,0,0,0,0,.1,0,0,0,0,0,0,0,0,0,0,0,0,0,0,0,0,.1.1,0,0,0,0,0,0l30.8,18s0,0,0,0c.1,0,.2.1.4.1s.3,0,.4-.1c0,0,0,0,0,0l30.8-18s0,0,0,0c0,0,0,0,.1-.1,0,0,0,0,0,0,0,0,0,0,0,0,0,0,0,0,0-.1,0,0,0-.1,0-.2,0,0,0,0,0-.1h0V18.8s0,0,0,0c0,0,0-.1,0-.2ZM409.2,20.3l29.1,17.1v34.1l-29.1-17V20.3ZM469.1,54.6l-29.1,17v-34.1l29.1-17.1v34.3ZM439.1,1.8l29.1,17-29.1,17.1-29.1-17.1,29.1-17Z"/>
    <path class="st1" d="M449.7,55.1l7.2-4.1c3.5-2,5.4-4.4,5.4-6.6,0-1.5-.9-2.1-2.4-1.8,1.2-1.3,1.8-2.6,1.8-3.8,0-1.9-1.6-2.4-5.1-.4l-6.8,3.9v12.7ZM457.9,46.4c0,.7-.5,1.3-1.4,1.8l-2.6,1.5v-2s2.6-1.5,2.6-1.5c.9-.5,1.4-.5,1.4.2ZM455.9,41.8c1-.6,1.4-.5,1.4.1,0,.6-.4,1.2-1.4,1.8l-2,1.2v-1.9s2-1.2,2-1.2Z"/>
    <path class="st1" d="M427.2,49c-.4.2-.9.3-1.4.2-.5,0-1-.2-1.5-.5-.8-.4-1.4-1.1-1.9-1.9-.5-.9-.7-1.7-.7-2.6,0-.8.2-1.4.7-1.7s1.1-.2,1.9.3c.5.3,1,.7,1.5,1.4.5.6,1,1.3,1.4,2l2.4-1.5c-.7-1.1-1.5-2.1-2.5-3.1-1-1-2-1.8-2.9-2.4-2-1.2-3.6-1.5-4.9-1.1-1.3.5-1.9,1.6-1.9,3.5,0,1.9.6,3.9,1.9,5.8,1.3,2,2.9,3.6,4.8,4.7,1,.6,2,.9,3,1.1,1,.1,1.9,0,2.6-.3l-2.4-4Z"/>
    <polygon class="st1" points="431.7 21.1 434.6 22.9 438.5 20.6 441.8 22.7 445.2 20.7 441.9 18.6 445.8 16.3 442.9 14.4 439 16.7 435.7 14.7 432.3 16.7 435.6 18.8 431.7 21.1"/>
    <path class="st1" d="M516.9,45.1c-1.4.7-2.8,1-4.2,1-2.5,0-4.6-.9-6.3-2.7-1.7-1.8-2.6-4-2.6-6.7s.9-4.8,2.6-6.6c1.7-1.8,3.8-2.7,6.3-2.7s2.9.4,4.3,1.1c1.4.7,2.7,1.8,3.7,3l4.7-5.6c-1.6-1.6-3.6-3-5.9-3.9-2.3-1-4.6-1.5-7-1.5-4.9,0-8.9,1.5-12.2,4.6-3.3,3.1-4.9,6.9-4.9,11.5s1.6,8.6,4.8,11.7c3.2,3.1,7.2,4.7,12,4.7s4.7-.5,7.1-1.6c2.4-1.1,4.4-2.5,6.1-4.2l-4.8-5c-1.1,1.2-2.4,2.1-3.9,2.7Z"/>
    <path class="st1" d="M555.7,32.1c0-3.6-1.2-6.3-3.5-8.2-2.3-1.9-5.6-2.9-9.8-2.9h-14.3v32h8.1v-9h6.4l4.8,9h9.2l-6.7-10.6c3.9-1.9,5.8-5.3,5.8-10.3ZM546.5,36.2c-1,.9-2.3,1.3-4.1,1.3h-6.2v-10.2h6.2c1.8,0,3.1.4,4.1,1.3,1,.9,1.5,2.1,1.5,3.7s-.5,3-1.5,3.8Z"/>
    <path class="st1" d="M573.1,20.9l-13.8,32h8.4l2.3-5.9h14l2.3,5.9h8.7l-13.5-32h-8.4ZM572.3,40.8l4.7-11.8,4.6,11.8h-9.2Z"/>
    <polygon class="st1" points="597.5 52.9 605.7 52.9 605.7 41.1 620 41.1 620 34.7 605.7 34.7 605.7 27.3 621.3 27.3 621.3 20.9 597.5 20.9 597.5 52.9"/>
    <polygon class="st1" points="623.9 27.4 633.4 27.4 633.4 52.9 641.6 52.9 641.6 27.4 651.2 27.4 651.2 20.9 623.9 20.9 623.9 27.4"/>
    <path class="st1" d="M675.3,35.9c1.7-.5,3-1.4,4-2.6,1-1.3,1.5-2.7,1.5-4.4,0-2.4-1.1-4.4-3.2-5.8-2.1-1.4-5-2.2-8.6-2.2h-15.1v32h15.7c3.8,0,6.8-.8,9-2.4,2.2-1.6,3.3-3.8,3.3-6.5s-.6-3.8-1.8-5.3c-1.2-1.5-2.8-2.4-4.8-2.8ZM662,27.1h6.6c1.2,0,2.1.3,2.8.9.7.6,1.1,1.4,1.1,2.4s-.4,1.8-1.1,2.4c-.7.6-1.6.9-2.8.9h-6.6v-6.6ZM672.2,45.7c-.9.6-2.1,1-3.6,1h-6.6v-7.1h6.6c1.5,0,2.7.3,3.6.9.9.6,1.3,1.5,1.3,2.5s-.4,2-1.3,2.6Z"/>
    <path class="st1" d="M712.8,25.3c-3.3-3.1-7.4-4.6-12.4-4.6s-9,1.5-12.3,4.6c-3.3,3.1-4.9,6.9-4.9,11.6s1.6,8.6,4.9,11.7c3.3,3.1,7.4,4.7,12.3,4.7s9.1-1.6,12.4-4.7c3.3-3.1,5-7,5-11.7s-1.6-8.5-4.9-11.6ZM706.8,43.7c-1.7,1.8-3.8,2.8-6.3,2.8s-4.6-.9-6.4-2.8c-1.8-1.8-2.7-4.1-2.7-6.8s.9-4.9,2.6-6.7c1.8-1.8,3.9-2.7,6.4-2.7s4.6.9,6.3,2.7c1.7,1.8,2.6,4.1,2.6,6.7s-.9,4.9-2.6,6.8Z"/>
    <polygon class="st1" points="734.4 36.2 744.9 20.9 735.4 20.9 729.2 30.2 723.1 20.9 713.6 20.9 724.3 36.5 712.9 52.9 722.3 52.9 729.2 42.7 736.1 52.9 745.9 52.9 734.4 36.2"/>
  </g>
  <g class="st4">
    <path class="st1" d="M36.6,31.3c.7,0,1.4,0,2.1,0,0,0,0,0,0,0,0,2.8,0,4.5,1.1,6.2,1.1,1.7,3.6,3.3,9.2,5.1,2.1.7,3.6.5,4.7,0,1.1-.6,2-1.7,2.5-3.1.8-2.2.9-5,.2-7.4,0,0,0,0,0,0,.9,0,1.6.1,2.3.2,0,0,0,0,0,0,.6,2.7.5,5.7-.4,8.1-.2.6-.5,1.2-.8,1.7,2.6-3.1,2.4-6.5,2.5-8.4,0,0,0,0,0,0l1.3,1.4s0,0,0,0v12.5s0,0,0,0c2.7,1.9,4,6.3,3.1,11.1-1.2,5.8-5.3,9.8-9.3,9.1-.7-.1-1.4-.4-2-.9-2-1.4-3.2-4.2-3.3-7.5,0,0,0,0,0,0l-1.9-.4s0,0,0,0c-.7-2.8-.6-5.6.2-7.7,0,0,0,0,0,0h0c-.8,1.2-1.4,2.7-1.7,4.4-.7,3.5,0,6.9,1.5,8.9,0,0,0,0,0,0-2.9,1.8-6.1,3.1-9.6,3.7,0,0,0,0,0,0,2.8-1.6,4.6-4.5,4.6-7.9,0-4.9-3.9-8.8-8.8-9.1-5,0-9.1,4.1-9.1,9.1,0,3.4,1.9,6.3,4.6,7.9,0,0,0,.1,0,0-3.5-.6-6.8-1.9-9.6-3.7,0,0,0,0,0,0,1-1.3,1.7-3.2,1.8-5.3,0,0,0,0,0,0,.5-.4,1-.9,1.4-1.5,1.1-1.8.8-4.1-.4-5.8,0,0,0,0,0,0,0,.8-.3,1.5-.7,2.2-.2.4-.5.8-.9,1.1,0,0,0,0,0,0-.3-1.1-1.1-2.1-2.3-2.8-2-1.2-4.4-.8-5.4.8,0,.1-.1.3-.2.4,0,0-.1,0-.1,0,0-1,.2-2,.7-2.9,0-.1.2-.3.3-.4,0,0,0-.1,0,0-.5.4-1,.9-1.3,1.5-.4.7-.6,1.4-.7,2.1,0,0,0,0,0,0-1.2,2-2,3.1-2.6,3.9,0,0,0,0,0,0-1.6-2-2.7-4.9-2.8-9.9,0,0,0,0,0,0s0,0,0,0h0c0,0,0-.1,0-.2v-1.3h0v-11.1s0,0,0,0l1.3-1.4s0,0,0,0c0,1.9-.1,5.4,2.5,8.4-.3-.5-.6-1.1-.8-1.7-.9-2.4-1-5.4-.4-8.1,0,0,0,0,0,0,.6,0,1.4-.1,2.3-.2,0,0,0,0,0,0-.7,2.5-.7,5.3.2,7.4.6,1.4,1.4,2.5,2.5,3.1,1.1.6,2.6.8,4.7,0,5.6-1.8,8.1-3.5,9.2-5.1,1.1-1.6,1.1-3.4,1.1-6.2,0,0,0,0,0,0,.7,0,1.4,0,2.1,0,0,0,0,0,0,0,0,2.6,0,5.2-1.5,7.4-1.6,2.3-4.7,4.2-10.4,6-1.6.5-3.1.7-4.5.4,0,0,0,0,0,.1,5.7,2.2,11.1-1.6,14.4-3.4,0,0,0,0,0,0l1.3,3.8s0,0,0,0c1-.1,1.9-.2,2.9-.2,0,0,0,0,0,0,1,0,2.3,0,3.3.2,0,0,0,0,0,0l1.3-3.8s0,0,0,0c3.4,1.8,8.7,5.6,14.4,3.4,0,0,0-.1,0-.1-1.3.2-2.8.1-4.5-.4-5.7-1.8-8.8-3.7-10.4-6-1.5-2.3-1.5-4.9-1.5-7.4,0,0,0,0,0,0ZM13.3,53.6c.8-1.4,2.8-1.7,4.4-.8,1.3.7,1.9,2,1.8,3.2,0,.3-.1.7-.3,1,0,0,0,0,0,0,0,0,0,0,0,0h0s0,0,0,0c0,0,0,.1-.1.2-.5.6-.5.1-.9-.4-.2-.2-.5-.6-.9-.5-.4,0-.1.8,0,1.3.1.5,0,1.4-.4,1.5-.5.1-.6-.7-1.1-.5-.6.3-.2,1.2-.3,1.7-.3.9-.7.4-1,.6-.4.3-.2.6-.4,1,0,0-1.2,1.3-3,2.7-.6.5-1.6,1.1-2.1,1.4-.4.2-.7.2-1,.2s-.4,0-.6.1c-.2.2-.2.2-.3.5-.2.5-1.6,1-2.5.2-.4-.3-.8,0-.7.3,0,0,0,0,0,0h0s0,0,0,0c0,0,0,0,0,0-2.4-.4-4.1-2.5-3.8-4.7.3-2.3,2.6-3.8,5.1-3.4.5,0,1,.2,1.5.4,0,0,0,0,0,0-.5.2-1.1.5-2.1.8,0,0,0,0,0,0,.8.5,2,.2,3.4-.6.9-.6,2-1.6,3.2-3.3.6-.8,1.3-1.8,2-2.9,0,0,0,0,0,0,0-.1,0-.2.1-.3ZM60,48.2c-3.3-.7-6.8,2.8-7.8,7.8-1,4.9.9,9.5,4.2,10.1.2,0,.5,0,.7.1-.1,0-.2,0-.3,0-2.9-.6-4.5-4.8-3.5-9.5.9-4.7,4.1-8,6.9-7.4,1.6.3,2.9,1.9,3.4,4,0,0,.1,0,.1,0-.3-2.7-1.5-4.5-3.7-5ZM60.2,50.9c-2.2-.4-4.6,2.1-5.3,5.6-.7,3.6.5,6.8,2.7,7.2.2,0,.3,0,.5,0,0,0,0,0,0,0-2.1-.4-3.2-3.4-2.5-6.8.7-3.3,2.9-5.7,4.9-5.3.8.2,1.4.7,1.9,1.5,0,0,.1,0,0,0-.4-1.2-1.2-2.1-2.3-2.3ZM33.7,54.5c2.4,0,4.5,1.5,5.4,3.6.2.6.3,1.2.3,1.8,0,1.5-.6,2.9-1.6,3.9,0-.3-.2-.6-.3-.8.4-.7.6-1.5.6-2.4s-.2-1.5-.5-2.1c-.7-1.5-2.1-2.5-3.9-2.5s-3.5,1.3-4.1,3c-.2.5-.3,1-.3,1.6,0,.9.2,1.7.6,2.4,0,.2-.2.5-.2.7-1-1-1.5-2.3-1.5-3.8s.7-3,1.8-4.1c1-.8,2.3-1.3,3.7-1.3ZM33.7,58.2c1.2,0,2.1.9,2.1,2.1s0,.4,0,.6c-.3-.8-1.1-1.4-2-1.4s-1.7.6-2,1.4c0-.2,0-.4,0-.6,0-1.1.9-2.1,2.1-2.1ZM59.9,56.3c-.7-.1-1.3.5-1.5,1.3-.2.9.2,1.7.9,1.8,0,0,0,0,0,0-.3-.3-.4-.9-.3-1.5.2-.9.8-1.4,1.5-1.3,0,0,0,0,0,0-.2-.1-.3-.2-.5-.3ZM4.1,35.3s0,0,0,0l1,.3s0,0,0,0v17.9s0,0,0,0l-4-3.7s0,0,0,0v-5.6s0,0,0,0l2.9-3.2s0,0,0,0v-5.7ZM63.7,35.2s0,0,0,0v5.7s0,0,0,0l2.9,3.2s0,0,0,0v5.6s0,0,0,0l-1.2,1.3s0,0,0,0c0-.3-.2-.6-.3-.9-.6-1.3-1.4-2.5-2.4-3.3,0,0,0,0,0,0v-11.3s0,0,0,0l1-.3ZM43.1,1.3s0,0,0,0l7.2,3.4s0,0,0,0v12s0,0,0,0c.4-.2.9-.4,1.5-.4s1,.1,1.5.4c0,0,0,0,0,0V6.2s0,0,0,0l7.1,3.4s0,0,0,0l3.4,11s0,0,0,0h1.8s0,0,0,0v12.3s0,0,0,0l-2.9.8s0,0,0,0l-2.8-2.8s0,0,0,0c-1.5-.5-17.6-1.1-25.9-1.3,0,0,0,0,0,0-8.3.2-24.7.8-26.2,1.3,0,0,0,0,0,0l-2.8,2.8s0,0,0,0l-2.9-.8s0,0,0,0v-12.3s0,0,0,0h1.8s0,0,0,0l3.4-11s0,0,0,0l7.1-3.4s0,0,0,0v10.4s0,0,0,0c.4-.2.9-.4,1.5-.4s1,.1,1.5.4c0,0,0,0,0,0V4.7s0,0,0,0l7.2-3.4s0,0,0,0v18.1s0,0,0,0l3.9,3.3s0,0,0,0c2.8,0,2.5,0,5.3,0,0,0,0,0,0,0,2.8,0,2.4,0,5.2,0,0,0,0,0,0,0l3.9-3.3s0,0,0,0V1.3ZM12.8,20.3c0,0,0,0-.1,0,0,0,0,.1,0,.2,0,1.7,1.4,3.1,3.2,3.1s3.2-1.4,3.2-3.1,0-.1,0-.2c0,0,0,0-.1,0-.4,1.3-1.6,2.3-3.1,2.3s-2.7-1-3.1-2.3ZM55.1,20.3c0,0,0,0-.1,0-.4,1.3-1.6,2.3-3.1,2.3s-2.7-1-3.1-2.3c0,0,0,0-.1,0,0,0,0,.1,0,.2,0,1.7,1.4,3.1,3.2,3.1s3.2-1.4,3.2-3.1,0-.1,0-.2ZM17.5,19.8s0,0,0,0c-.2.6-.8,1.1-1.5,1.1s-1.3-.4-1.5-1.1c0,0,0,0,0,0,0,.9.7,1.6,1.6,1.6s1.6-.7,1.6-1.6ZM53.6,19.7s0,0,0,0c-.2.6-.8,1.1-1.5,1.1s-1.3-.4-1.5-1.1c0,0,0,0,0,0,0,.9.7,1.6,1.6,1.6s1.6-.7,1.6-1.6ZM33.8,2.5c1.8,0,4.5.3,6.4.9l.7.2s0,0,0,0v14.8s0,0,0,0l-.4.3-2.2,1.8s0,0,0,0l-.7-.8-.7-.8s0,0,0,0l1.8-1.5s0,0,0,0V5.3s0,0,0,0c-1.5-.4-3.3-.5-4.7-.6,0,0,0,0,0,0-1.4,0-3.2.2-4.8.6,0,0,0,0,0,0v12.1s0,0,0,0l1.8,1.5s0,0,0,0l-.7.8-.7.8s0,0,0,0l-2.2-1.8-.4-.3s0,0,0,0V3.7s0,0,0,0l.7-.2c1.9-.6,4.3-.9,6.1-1,0,0,0,0,0,0Z"/>
  </g>
  <g class="st3">
    <g>
      <path class="st1" d="M268.7,10.9v24.5l-7.2-24.6h-10.2v49.1h10.2v-24.6l7.2,24.6h10.2V10.9h-10.2Z"/>
      <path class="st1" d="M175.1,50.5V10.9h-10.2v49.1h23.6v-9.5h-13.4Z"/>
      <path class="st1" d="M83.4,10.9c-3.4,0-6.2,2.8-6.2,6.2v14.6c0,1.5.8,2.9,2.2,3.7l14.3,7.6v7.6h-6.3v-5.6h-10.2v8.9c0,3.4,2.8,6.2,6.2,6.2h14.4c3.4,0,6.2-2.8,6.2-6.2v-14.6c0-1.5-.8-2.9-2.2-3.7l-14.3-7.6v-7.6h6.3v5.6h10.2v-8.9c0-3.4-2.8-6.2-6.2-6.2h-14.4Z"/>
      <path class="st1" d="M133.6,10.9h-26.7v9.5h8.2v39.6h10.2V20.4h8.2v-9.5Z"/>
      <path class="st1" d="M152.1,60h9.6l-8.1-49.1h-14.3l-8.1,49.1h9.6l1.6-9.5h8.1l1.6,9.5ZM143.9,41l2.5-15.1,2.5,15.1h-5Z"/>
      <path class="st1" d="M308.5,20.4v-9.5h-26.5s0,0,0,0v49.1h0s26.5,0,26.5,0v-9.6h-16.3v-10.3h12.4v-9.4h-12.4v-10.3h16.3Z"/>
      <path class="st1" d="M221.4,17.1v36.7c0,3.4,2.8,6.2,6.2,6.2h14.4c3.4,0,6.2-2.8,6.2-6.2V17.1c0-3.4-2.8-6.2-6.2-6.2h-14.4c-3.4,0-6.2,2.8-6.2,6.2ZM238.6,50.5h-7.6v-30.1h7.6v30.1Z"/>
      <path class="st1" d="M218.3,20.4v-9.5h-26.7v9.5h15.3l-15.3,30.1v9.5h26.7v-9.5h-15.3l15.3-30.1Z"/>
      <path class="st1" d="M218.3,50.5h-7.5v9.5h7.5v-9.5Z"/>
    </g>
  </g>
  <text class="st0" transform="translate(338.8 51.3) scale(1.5 1)"><tspan x="0" y="0">X</tspan></text>
</svg>