<?xml version="1.0"?>
<svg xmlns="http://www.w3.org/2000/svg" viewBox="570 0 1420 1440" preserveAspectRatio="none">
  <g id="Layer_1" data-name="Layer 1" fill="#0b0d0c" fill-opacity="0.8">
    <path d="M1955.8,91.5c14.4-18.8,38.8-24.1-10.2-43.9-25.8-41.4-28-22.4-13.6-43-30.6-10.8,16.1-31.8-9.9-42.1-1.9-16.1-11.6-49.7,1.8-44.1-12.2-7.7-37.5-26.2,7.9-39.1-20.4-16-44.2-54.3-20.5-40.6,2.1-14.8,4.8-31.9-25.5-39.3-.2-.2-.3-.4-.5-.6h-650.3v22.3h-574.8c-.4,2.4-.9,4.7-1.3,6.8-35,24.4-6.1,37.3.6,35.7,11.7-3.2-23.6,23.6-21.4,26-23.9-6.1,10.2,31.1-19.5,28.9,7.6,7-9.7,17.8-5.4,31.2-.5,20.4,8.7-1.1-6.5,30.2,3.8,16.7-1.2,2.3-6.4,33.2,5.1,6.5,4,19.2,4.6,25.7,1.9-.8,17.4,19.5,14,35.9,14.7-4,16.3,4.1,7.3,30.8,29,26.9-6.7,2.7,1.3,31.6,25.8,19.9,13.3,17.6,3,32,2.6,23.4,17.4,49.2,21.4,52.2-.8-3.1-1.5-6.5-2.6-10.7,4.1,9.1,4.4,12,2.6,10.7,2.6,10.4,5.5,16.1,24.7,28.1,20.4,3.4,5.9,22.8,19,42.5,10.6,13.8,23.3,38.9,1.6,33.8-26.5-17.1-54.1,52.9-5.3,34.7-18.1,36.4-16.2,19.2-8.1,33.1,17.5,55.5-19.6,22.9-18.7,39.7-13.2,70.4.5-13.6-25.4,33.6,53,7.7-25.7,30.1-21,36.1-14.9,9.1,9.4,33.1-6.9,47,6.2,18.5-11.5,48.7,7.8,50.5-1.2,48.1,5,37.3,16.1,49.5,15.3,17.1,20,42.9,18,43.9,4.2,6-12.4,31.5,16.5,33.3-1.2,9.8,13.1,22.6,14.3,32.4,15,16.8-9.2,9.2,5.1,37.6-23.2,8.3-19.8,61.9-6.3,41.8.5,21.9-6.8,42-14,32.2,4.2,12.9-17.7,27.2-32.6,30.9-28.2,6.5-16.7,16.8-16.1,30-13.4,16,4.1,15.8-13.3,30.7-12.1,20.3-15.4,30.9-14,41.7,3,10.2,13.9,13,13.7,43.2,33.7,19.8,25.5,10.1,1.5,37.4-21.5,40.2,5,26.2-8.4,37.1,2.9,22.1-23.9,10.1-4.4,35.9-19.1,11.1,18.6,27.5,9.7,45.6-47.6,13.9,1.1,20.5,18.3,49-14.3,35.2-2.8,47,18.5,43.6,4.2-9.9.8,23.4,21.5,41.8-13.9,35.8,4.7,4.8,25.9,41.9,13.4,18.1,1.2,30.6,24.6,42.2,7.6,28.9,27.7,33.2,17.8,42.8,19.7,16.5,15.7,33.8,5.3,43.7-48.7,34.7-6.6,54.6-8.7,50.9,9.2,12.7-2,23.3-15.2,48.4-41,1.7-5.8,38.4-15.2,48,.7,25.6-1.2,28.7-4.4,36.3h541.3v-22.3h605.6c.9-1.8,1.8-3.7,2.8-5.7.2,2.4.3,4.2.4,5.7h.3c-.8-11.6-4.4-42.7-12.9-48.4-6.5-21.4-10.1-21.1,11.5-36.9,40.7-16.3,10.5-49.5,24-41.8,24.6-7.5,10.1-28.1,24.1-35.3,18.8-8.1,22.9-32,24.1-35.9-2.2-10.5,5.2-7.3,20.5-30.4,32.3-38.7,9.3-15.7,8.1-39.4,5.6,13,24.3-56.1-13.4-46.4-29-34.3,16.2-36.5-27.9-40.1,8.4-48.7-33.9-28.2-15-52.1,6.5-26.6-15.6-34.7,8.1-48.2,26.8-14.1,18.4-13.2,10.1-47.9-25,2.9,12.2-33-9.2-51.3-7.3-29-43.6-18.2-20.1-41.5,6.1-19,8.3-13.7,5.6-46.6,49-24.9-16.2-48.3,25.3-41.9,11.2-12.4-14.9-33.6,22.9-39.3-28.7-7,30.2-30.9,7.6-45.6-25.8,8.6-54.1-29.7-15.2-37.9,22.6-6.5-17.2-43.3-18.9-39.6-24.5.8-39.1-8.7-3.2-36.1-5.3-14.5,21.9-26.1,1.3-37.8-13.7-29.9-1.7-36.4-5-35.8,42-32.8,17.4-28-15.3-14.7-24.4-6,11.2-21.2-14.8-15.7,3-8.2-23.3-20.1-1.4-20.1,10.5-10.6,19.1-9.2,3-19.9,2.8-17.7-32.8-29.2,16.8-41.5-13.3-3.5,34.5-21.7,22-40.1-22.4-28.8,32.6-36.6,18.5-41-13.2-18.1,23.5-15.6,4.1-33.4-12.5-12.5-12.7-24.4-7.9-30.1-10.7-.1-39.8,5.9-14.2-30.9,8.8-9.1-30.9-4.6-10.4-40.4-16.8-1.9.6-26.2,2.4-37.6,15.5-10.4-8.3-44.1,3-42-6.9-22.6,2.8-22.9-7.2-44.4-9.8-19.9,10-24.4,1.3-44.2-10.3-44,14.5-14.7,32.2-38.6-4.4-13.8,12.7-14.1,27-42.5-33.7-21.8,26.5-29.2.3-44.8Z"></path>
  </g>
</svg>